<svg width="241" height="70" viewBox="0 0 241 70" fill="none" xmlns="http://www.w3.org/2000/svg">
<path d="M0 35C0 15.67 15.67 0 35 0H206C225.33 0 241 15.67 241 35V35C241 54.33 225.33 70 206 70H35C15.67 70 0 54.33 0 35V35Z" fill="#F5F5F5"/>
<path fill-rule="evenodd" clip-rule="evenodd" d="M89.8326 23.7217C89.0217 24.5734 87.9531 25.0012 86.6649 25.0001C85.4279 25.0012 84.3605 24.567 83.4951 23.7071C82.6255 22.8478 82.1875 21.7678 82.1886 20.5003C82.1875 19.2324 82.6255 18.1529 83.4946 17.2941C84.3605 16.4337 85.4279 15.9989 86.6649 16C87.2807 16 87.8726 16.1206 88.4335 16.3615C88.9934 16.6016 89.4488 16.9251 89.7907 17.3327L89.8728 17.4301L89.7826 17.5202L88.9418 18.3622L88.844 18.2458C88.3162 17.618 87.6058 17.3072 86.6649 17.305C85.8186 17.3061 85.1007 17.5975 84.4817 18.1926C83.8686 18.7856 83.5636 19.5426 83.5621 20.5003C83.5636 21.458 83.8686 22.2151 84.4817 22.8081C85.1007 23.4032 85.8186 23.6946 86.6649 23.6957C87.5667 23.694 88.3004 23.4 88.8982 22.8044C89.2463 22.4548 89.4632 21.9764 89.542 21.3509H86.5258V21.2118V20.0698H90.8267L90.8473 20.1841C90.8881 20.4102 90.9077 20.6275 90.9077 20.839C90.9087 22.0297 90.5518 23.0017 89.8326 23.7217ZM97.3212 16.3261V17.3517V17.4909H93.5194V19.8596H96.9479V19.9987V21.1411H93.5194V23.5098H97.3212V23.6489V24.8137H92.1693V16.187H97.3212V16.3261ZM101.845 17.4909V24.6745V24.8137H101.706H100.493V17.4909H98.1614V17.3517V16.187H104.177V16.3261V17.4909H101.845ZM109.261 24.8137H108.188H108.049V16.187H108.188H109.4V24.8137H109.261ZM114.158 17.4909V24.6745V24.8137H114.019H112.806V17.4909H110.475V17.3517V16.187H116.49V16.3261V17.4909H114.158ZM121.094 20.5003C121.095 21.4427 121.39 22.1983 121.981 22.7989C122.576 23.3995 123.288 23.694 124.15 23.6957C125.011 23.694 125.724 23.3995 126.318 22.7989C126.91 22.1983 127.205 21.4427 127.206 20.5003C127.205 19.5579 126.91 18.8024 126.318 18.2017C125.724 17.6012 125.011 17.3067 124.15 17.305C123.288 17.3067 122.576 17.6012 121.981 18.2017C121.39 18.8024 121.095 19.5579 121.094 20.5003ZM128.58 20.5003C128.581 21.7515 128.154 22.8261 127.311 23.6924C126.467 24.5625 125.401 25.0012 124.15 25.0001C122.897 25.0012 121.832 24.5625 120.99 23.6924L120.993 23.6968L120.99 23.6929C120.145 22.8261 119.72 21.7515 119.721 20.5003C119.72 19.2492 120.145 18.1746 120.99 17.3078V17.3083C121.832 16.4381 122.897 15.9985 124.15 16C125.395 15.9985 126.458 16.4402 127.305 17.3138C128.153 18.1839 128.581 19.2563 128.58 20.5003ZM131.123 18.2977L131.157 19.4725V24.8137H131.018H129.946H129.807V16.187H129.946H131.329L135.204 22.3891L135.17 21.2134V16.187H135.309H136.522V24.8137H136.383H135.186L131.123 18.2977ZM173.581 48.3284H176.178V30.9342H173.581V48.3284ZM196.967 37.1999L193.99 44.7412H193.901L190.813 37.1999H188.016L192.648 47.7402L190.007 53.6032H192.716L199.854 37.1999H196.967ZM182.243 46.3527C181.391 46.3527 180.206 45.9276 180.206 44.8755C180.206 43.5329 181.684 43.0182 182.958 43.0182C184.1 43.0182 184.636 43.2644 185.33 43.6004C185.129 45.2113 183.741 46.3527 182.243 46.3527ZM182.556 36.8194C180.676 36.8194 178.73 37.6477 177.924 39.4827L180.228 40.4447C180.721 39.4827 181.638 39.169 182.6 39.169C183.943 39.169 185.308 39.9751 185.33 41.4072V41.586C184.86 41.3175 183.854 40.9148 182.623 40.9148C180.139 40.9148 177.61 42.2795 177.61 44.8308C177.61 47.1582 179.647 48.6577 181.928 48.6577C183.675 48.6577 184.636 47.8745 185.241 46.9571H185.33V48.2996H187.836V41.6306C187.836 38.5429 185.532 36.8194 182.556 36.8194ZM166.51 39.3174H162.818V33.3551H166.51C168.451 33.3551 169.553 34.9621 169.553 36.3361C169.553 37.6841 168.451 39.3174 166.51 39.3174ZM166.444 30.9342H160.223V48.3284H162.818V41.7383H166.444C169.321 41.7383 172.15 39.6549 172.15 36.3361C172.15 33.0175 169.321 30.9342 166.444 30.9342ZM132.52 46.3559C130.726 46.3559 129.224 44.8542 129.224 42.7916C129.224 40.7072 130.726 39.1827 132.52 39.1827C134.291 39.1827 135.68 40.7072 135.68 42.7916C135.68 44.8542 134.291 46.3559 132.52 46.3559ZM135.501 38.1739H135.411C134.829 37.4792 133.707 36.8515 132.295 36.8515C129.336 36.8515 126.624 39.4516 126.624 42.7916C126.624 46.1092 129.336 48.6871 132.295 48.6871C133.707 48.6871 134.829 48.0593 135.411 47.3424H135.501V48.1941C135.501 50.4585 134.291 51.6688 132.34 51.6688C130.749 51.6688 129.763 50.5252 129.359 49.5616L127.095 50.503C127.745 52.0721 129.471 54 132.34 54C135.389 54 137.967 52.2063 137.967 47.8354V37.2102H135.501V38.1739ZM139.76 48.3284H142.36V30.9336H139.76V48.3284ZM146.193 42.5899C146.126 40.3033 147.964 39.138 149.287 39.138C150.319 39.138 151.192 39.6532 151.483 40.3936L146.193 42.5899ZM154.263 40.6175C153.771 39.2945 152.268 36.8515 149.197 36.8515C146.148 36.8515 143.616 39.25 143.616 42.7693C143.616 46.0869 146.126 48.6871 149.488 48.6871C152.201 48.6871 153.771 47.0282 154.42 46.0645L152.403 44.7193C151.731 45.7058 150.811 46.3559 149.488 46.3559C148.166 46.3559 147.225 45.7505 146.619 44.5628L154.532 41.2898L154.263 40.6175ZM91.2213 38.6673V41.1778H97.2287C97.0493 42.5899 96.5786 43.621 95.8612 44.3384C94.9873 45.2129 93.6198 46.1766 91.2213 46.1766C87.5226 46.1766 84.6311 43.1953 84.6311 39.4967C84.6311 35.7981 87.5226 32.8165 91.2213 32.8165C93.2164 32.8165 94.6731 33.6012 95.7492 34.61L97.52 32.8393C96.0183 31.4043 94.023 30.306 91.2213 30.306C86.1551 30.306 81.8961 34.4306 81.8961 39.4967C81.8961 44.5628 86.1551 48.6871 91.2213 48.6871C93.9563 48.6871 96.0183 47.7909 97.6321 46.1092C99.2909 44.4504 99.8067 42.1192 99.8067 40.2365C99.8067 39.6532 99.762 39.1158 99.6719 38.6673H91.2213ZM106.637 46.3559C104.843 46.3559 103.296 44.8764 103.296 42.7693C103.296 40.6398 104.843 39.1827 106.637 39.1827C108.429 39.1827 109.976 40.6398 109.976 42.7693C109.976 44.8764 108.429 46.3559 106.637 46.3559ZM106.637 36.8515C103.363 36.8515 100.696 39.3396 100.696 42.7693C100.696 46.1766 103.363 48.6871 106.637 48.6871C109.909 48.6871 112.577 46.1766 112.577 42.7693C112.577 39.3396 109.909 36.8515 106.637 36.8515ZM119.595 46.3559C117.802 46.3559 116.255 44.8764 116.255 42.7693C116.255 40.6398 117.802 39.1827 119.595 39.1827C121.388 39.1827 122.935 40.6398 122.935 42.7693C122.935 44.8764 121.388 46.3559 119.595 46.3559ZM119.595 36.8515C116.322 36.8515 113.655 39.3396 113.655 42.7693C113.655 46.1766 116.322 48.6871 119.595 48.6871C122.867 48.6871 125.535 46.1766 125.535 42.7693C125.535 39.3396 122.867 36.8515 119.595 36.8515ZM41.1461 22.9583V47.0416C41.1461 47.8775 41.6278 48.6 42.3361 48.9541L56.2903 35L42.3361 21.0458C41.6278 21.3858 41.1461 22.1225 41.1461 22.9583ZM45.467 48.2316L60.7103 39.42L57.4945 36.2041L45.467 48.2316ZM66.292 35C66.292 34.2916 65.9378 33.6966 65.4561 33.3141L62.2403 31.4583L58.6986 35L62.2403 38.5416L65.4845 36.6716C65.9803 36.275 66.292 35.7083 66.292 35ZM60.7103 30.58L45.467 21.7683L57.4945 33.7958L60.7103 30.58Z" fill="#1C232D"/>
</svg>
