<svg width="82" height="50" viewBox="0 0 82 50" fill="none" xmlns="http://www.w3.org/2000/svg">
<rect x="1" y="1" width="80" height="48" rx="24" fill="white" stroke="#EBECF0"/>
<rect width="24" height="24" transform="translate(29 13)" fill="white"/>
<path d="M53 25C53 18.3708 47.6248 13 41 13C34.3708 13 29 18.3708 29 25C29 30.988 33.3868 35.953 39.125 36.8522V28.4695H36.0778V25.0007H39.125V22.3555C39.125 19.3488 40.9138 17.6883 43.6558 17.6883C44.969 17.6883 46.3438 17.9223 46.3438 17.9223V20.875H44.828C43.34 20.875 42.875 21.8013 42.875 22.75V25H46.2028L45.668 28.4688H42.875V36.8515C48.6087 35.9522 53 30.9872 53 24.9992V25Z" fill="#707989"/>
</svg>
