<svg width="82" height="50" viewBox="0 0 82 50" fill="none" xmlns="http://www.w3.org/2000/svg">
<rect x="1" y="1" width="80" height="48" rx="24" fill="white" stroke="#EBECF0"/>
<rect width="24" height="24" transform="translate(29 13)" fill="white"/>
<path d="M41.0005 13C37.7387 13 37.3322 13.0158 36.0557 13.0698C34.774 13.1328 33.907 13.3315 33.142 13.6285C32.3413 13.9308 31.6162 14.404 31.0172 15.0152C30.4043 15.6128 29.9308 16.3383 29.6305 17.14C29.3335 17.905 29.1347 18.772 29.0717 20.0538C29.014 21.331 29.002 21.7367 29.002 24.9985C29.002 28.2603 29.0177 28.6667 29.0717 29.9432C29.1347 31.2213 29.3335 32.092 29.6305 32.857C29.9327 33.6577 30.406 34.3828 31.0172 34.9818C31.6148 35.5947 32.3403 36.0682 33.142 36.3685C33.907 36.6618 34.7777 36.8643 36.0557 36.9272C37.333 36.985 37.7387 36.997 41.0005 36.997C44.2622 36.997 44.6687 36.9813 45.9452 36.9272C47.2232 36.8643 48.094 36.661 48.859 36.3685C49.6596 36.0662 50.3847 35.593 50.9837 34.9818C51.5974 34.3848 52.0711 33.6591 52.3705 32.857C52.6637 32.092 52.8662 31.2213 52.9292 29.9432C52.987 28.666 52.999 28.2603 52.999 24.9985C52.999 21.7367 52.9832 21.3302 52.9292 20.0538C52.8662 18.7757 52.663 17.9005 52.3705 17.14C52.0682 16.3393 51.5949 15.6142 50.9837 15.0152C50.3868 14.4015 49.6611 13.9279 48.859 13.6285C48.094 13.3315 47.2232 13.1328 45.9452 13.0698C44.668 13.012 44.2622 13 41.0005 13ZM41.0005 15.16C44.2037 15.16 44.5862 15.1758 45.8522 15.2298C47.02 15.2845 47.656 15.4795 48.0782 15.6445C48.6002 15.8372 49.0727 16.1439 49.4612 16.5423C49.8589 16.9291 50.1644 17.4005 50.3552 17.9215C50.5202 18.3438 50.7152 18.9797 50.77 20.1475C50.8239 21.4135 50.8397 21.7968 50.8397 24.9992C50.8397 28.2017 50.824 28.585 50.7655 29.851C50.7025 31.0188 50.5075 31.6548 50.3432 32.077C50.116 32.6403 49.8624 33.034 49.444 33.46C49.0541 33.8559 48.582 34.1611 48.061 34.354C47.644 34.519 46.999 34.714 45.8267 34.7687C44.554 34.8228 44.179 34.8385 40.9675 34.8385C37.756 34.8385 37.3817 34.8228 36.1075 34.7642C34.9397 34.7013 34.2955 34.5063 33.8732 34.342C33.3032 34.1147 32.9125 33.8612 32.494 33.4427C32.0717 33.0205 31.8032 32.6185 31.5962 32.0597C31.4282 31.6427 31.2362 30.9977 31.174 29.8255C31.1312 28.5677 31.111 28.1778 31.111 24.9813C31.111 21.7863 31.1312 21.3955 31.174 20.122C31.2362 18.9498 31.4282 18.3063 31.5962 17.8878C31.8032 17.317 32.0725 16.927 32.494 16.5047C32.9117 16.087 33.3032 15.817 33.8732 15.6055C34.2955 15.4413 34.924 15.2463 36.0962 15.1878C37.369 15.142 37.744 15.1255 40.951 15.1255L41.0005 15.16ZM41.0005 18.8403C40.1915 18.84 39.3903 18.9991 38.6429 19.3085C37.8954 19.618 37.2162 20.0717 36.6442 20.6437C36.0721 21.2158 35.6184 21.8949 35.309 22.6424C34.9995 23.3899 34.8404 24.191 34.8407 25C34.8404 25.809 34.9995 26.6101 35.309 27.3576C35.6184 28.1051 36.0721 28.7842 36.6442 29.3563C37.2162 29.9283 37.8954 30.382 38.6429 30.6915C39.3903 31.0009 40.1915 31.16 41.0005 31.1597C41.8094 31.16 42.6106 31.0009 43.358 30.6915C44.1055 30.382 44.7847 29.9283 45.3567 29.3563C45.9288 28.7842 46.3825 28.1051 46.6919 27.3576C47.0014 26.6101 47.1605 25.809 47.1602 25C47.1605 24.191 47.0014 23.3899 46.6919 22.6424C46.3825 21.8949 45.9288 21.2158 45.3567 20.6437C44.7847 20.0717 44.1055 19.618 43.358 19.3085C42.6106 18.9991 41.8094 18.84 41.0005 18.8403ZM41.0005 28.9998C38.7895 28.9998 37.0007 27.211 37.0007 25C37.0007 22.789 38.7895 21.0002 41.0005 21.0002C43.2115 21.0002 45.0002 22.789 45.0002 25C45.0002 27.211 43.2115 28.9998 41.0005 28.9998ZM48.8485 18.5943C48.8481 18.9765 48.6959 19.343 48.4255 19.6131C48.1551 19.8833 47.7885 20.035 47.4062 20.035C47.2172 20.035 47.03 19.9978 46.8554 19.9254C46.6808 19.8531 46.5221 19.7471 46.3885 19.6135C46.2549 19.4798 46.1488 19.3211 46.0765 19.1465C46.0042 18.9719 45.967 18.7848 45.967 18.5957C45.967 18.4067 46.0042 18.2196 46.0765 18.045C46.1488 17.8704 46.2549 17.7117 46.3885 17.578C46.5221 17.4444 46.6808 17.3384 46.8554 17.2661C47.03 17.1937 47.2172 17.1565 47.4062 17.1565C48.199 17.1565 48.8485 17.8015 48.8485 18.5943Z" fill="#707989"/>
</svg>
