<svg width="241" height="70" viewBox="0 0 241 70" fill="none" xmlns="http://www.w3.org/2000/svg">
<path d="M0 35C0 15.67 15.67 0 35 0H206C225.33 0 241 15.67 241 35V35C241 54.33 225.33 70 206 70H35C15.67 70 0 54.33 0 35V35Z" fill="#F5F5F5"/>
<path fill-rule="evenodd" clip-rule="evenodd" d="M120.883 16H119.535V25.4957H120.883V16ZM63.3313 21.7239C64.5622 20.2463 65.1685 18.3471 65.0217 16.4296C63.1412 16.6271 61.4042 17.5259 60.1567 18.9468C59.5468 19.6409 59.0797 20.4485 58.782 21.3233C58.4844 22.1981 58.362 23.1229 58.4221 24.045C59.3626 24.0547 60.2931 23.8508 61.1435 23.4488C61.9939 23.0467 62.7419 22.4569 63.3313 21.7239ZM67.4745 33.9938C67.4908 32.7279 67.8271 31.4866 68.452 30.3855C69.0769 29.2845 69.9702 28.3594 71.0488 27.6963C70.3636 26.7178 69.4597 25.9125 68.4089 25.3444C67.3581 24.7763 66.1893 24.4611 64.9953 24.4237C63.4374 24.2602 61.9086 24.867 60.6591 25.3629C59.866 25.6777 59.1854 25.9478 58.6814 25.9478C58.1081 25.9478 57.4079 25.6666 56.6235 25.3514C55.5977 24.9394 54.4276 24.4695 53.2083 24.4945C51.8165 24.5395 50.46 24.9443 49.2711 25.6693C48.0822 26.3944 47.1014 27.4151 46.4242 28.6319C43.4909 33.7105 45.6789 41.1743 48.4887 45.2795C49.8946 47.2897 51.5376 49.5351 53.6875 49.4555C54.6627 49.415 55.3547 49.1238 56.0695 48.823C56.8966 48.4749 57.7542 48.114 59.1164 48.114C60.4009 48.114 61.2217 48.4636 62.0094 48.7992C62.7646 49.1209 63.4893 49.4296 64.5629 49.4048C66.8204 49.3682 68.2427 47.3857 69.5992 45.3565C70.6093 43.9242 71.3865 42.3412 71.9022 40.6661C70.5907 40.1114 69.4715 39.1829 68.6841 37.9963C67.8967 36.8098 67.4761 35.4178 67.4745 33.9938ZM86.8885 44.3665H94.0677L95.7903 49.4573H98.883L92.0829 30.6228H88.9236L82.1236 49.4573H85.1644L86.8885 44.3665ZM93.3227 42.0174H87.632L90.4389 33.7554H90.5174L93.3227 42.0174ZM113.569 42.5921C113.569 46.8593 111.285 49.6009 107.838 49.6009C106.965 49.6466 106.097 49.4455 105.332 49.0206C104.568 48.5957 103.939 47.9642 103.517 47.1985H103.452V54H100.634V35.7254H103.362V38.0093H103.414C103.855 37.2472 104.495 36.619 105.265 36.1916C106.035 35.7641 106.906 35.5533 107.786 35.5817C111.271 35.5817 113.569 38.3367 113.569 42.5921ZM110.671 42.5921C110.671 39.8119 109.235 37.9842 107.043 37.9842C104.889 37.9842 103.44 39.8504 103.44 42.5921C103.44 45.3589 104.889 47.2118 107.043 47.2118C109.235 47.2118 110.671 45.3974 110.671 42.5921ZM122.952 49.6009C126.399 49.6009 128.683 46.8593 128.683 42.5921C128.683 38.3367 126.385 35.5817 122.9 35.5817C122.02 35.5533 121.148 35.7641 120.379 36.1915C119.609 36.619 118.969 37.2472 118.528 38.0093H118.476V35.7254H115.748V54H118.566V47.1984H118.631C119.053 47.9642 119.682 48.5957 120.446 49.0206C121.211 49.4455 122.079 49.6466 122.952 49.6009ZM122.157 37.9841C124.349 37.9841 125.785 39.8119 125.785 42.5921C125.785 45.3974 124.349 47.2118 122.157 47.2118C120.003 47.2118 118.554 45.3589 118.554 42.5921C118.554 39.8504 120.003 37.9841 122.157 37.9841ZM138.671 44.2095C138.88 46.0772 140.695 47.3036 143.174 47.3036C145.55 47.3036 147.259 46.0772 147.259 44.3931C147.259 42.9312 146.228 42.0558 143.787 41.4559L141.346 40.8679C137.888 40.0325 136.282 38.4151 136.282 35.7905C136.282 32.5408 139.114 30.3087 143.136 30.3087C147.116 30.3087 149.844 32.5408 149.936 35.7905H147.09C146.92 33.9109 145.366 32.7763 143.096 32.7763C140.825 32.7763 139.271 33.9242 139.271 35.595C139.271 36.9265 140.264 37.7101 142.691 38.3099L144.766 38.8194C148.631 39.7333 150.236 41.2856 150.236 44.0405C150.236 47.5642 147.43 49.7711 142.965 49.7711C138.788 49.7711 135.968 47.616 135.786 44.2094L138.671 44.2095ZM156.32 35.7254V32.4757H153.488V35.7254H151.491V37.9575H153.488V45.8284C153.488 48.4915 154.572 49.5357 157.352 49.5357C157.877 49.5455 158.401 49.5018 158.918 49.4054V47.1866C158.61 47.2247 158.3 47.2464 157.99 47.2518C156.842 47.2518 156.32 46.7038 156.32 45.5278V37.9575H158.931V35.7254H156.32ZM160.443 42.5921C160.443 38.2715 162.988 35.5566 166.956 35.5566C170.937 35.5566 173.47 38.2715 173.47 42.5921C173.47 46.9245 170.95 49.6276 166.956 49.6276C162.962 49.6276 160.443 46.9245 160.443 42.5921ZM170.598 42.5921C170.598 39.6283 169.24 37.879 166.956 37.879C164.672 37.879 163.315 39.6416 163.315 42.5921C163.315 45.5677 164.672 47.3037 166.956 47.3037C169.24 47.3037 170.598 45.5677 170.598 42.5921H170.598ZM178.482 35.7254H175.794L175.794 49.4573H178.612V41.3123C178.566 40.9052 178.608 40.4928 178.736 40.1035C178.864 39.7142 179.075 39.3572 179.354 39.0571C179.633 38.7569 179.974 38.5207 180.353 38.3647C180.732 38.2086 181.14 38.1364 181.55 38.153C181.978 38.1405 182.406 38.1981 182.816 38.3234V35.6869C182.499 35.6159 182.175 35.5806 181.85 35.5817C181.099 35.553 180.36 35.784 179.758 36.2358C179.157 36.6876 178.729 37.3327 178.547 38.0627H178.482V35.7254ZM195.812 45.4241C195.433 47.9169 193.005 49.6276 189.899 49.6276C185.904 49.6276 183.425 46.9511 183.425 42.6573C183.425 38.35 185.918 35.5566 189.78 35.5566C193.58 35.5566 195.969 38.1664 195.969 42.3299V43.2956H186.27V43.466C186.225 43.9713 186.289 44.4804 186.456 44.9595C186.623 45.4385 186.89 45.8765 187.239 46.2444C187.589 46.6123 188.012 46.9016 188.482 47.0932C188.952 47.2847 189.457 47.3742 189.964 47.3555C190.63 47.4179 191.299 47.2636 191.87 46.9156C192.441 46.5677 192.885 46.0445 193.135 45.4241L195.812 45.4241ZM186.283 41.3257H193.149C193.174 40.8713 193.105 40.4166 192.946 39.9901C192.787 39.5635 192.542 39.1744 192.226 38.8472C191.91 38.5199 191.529 38.2616 191.108 38.0883C190.688 37.9151 190.235 37.8307 189.78 37.8405C189.321 37.8378 188.866 37.926 188.442 38.1C188.017 38.274 187.631 38.5305 187.306 38.8545C186.981 39.1785 186.723 39.5637 186.547 39.9878C186.372 40.412 186.282 40.8667 186.283 41.3257ZM89.0148 16.7073C88.4625 16.4928 87.8695 16.4035 87.2786 16.4459H84.0097V25.4959H87.2786C89.9743 25.4959 91.537 23.834 91.537 20.9427C91.6115 20.355 91.5546 19.758 91.3705 19.1949C91.1863 18.6318 90.8795 18.1166 90.4722 17.6864C90.0648 17.2562 89.567 16.9218 89.0148 16.7073ZM87.1216 24.216H85.4153V17.7248H87.1216C87.5417 17.7015 87.9618 17.7714 88.3517 17.9295C88.7416 18.0876 89.0917 18.33 89.377 18.6393C89.6622 18.9486 89.8755 19.3172 90.0016 19.7186C90.1276 20.12 90.1633 20.5443 90.1061 20.9612C90.1678 21.3797 90.1354 21.8067 90.0112 22.211C89.8871 22.6154 89.6743 22.987 89.3884 23.2988C89.1025 23.6106 88.7507 23.8547 88.3586 24.0134C87.9664 24.1721 87.5439 24.2413 87.1216 24.216ZM93.1248 22.078C93.0819 21.6292 93.1333 21.1763 93.2756 20.7485C93.4179 20.3207 93.6481 19.9273 93.9513 19.5937C94.2546 19.26 94.6242 18.9935 95.0366 18.811C95.4489 18.6286 95.8948 18.5344 96.3456 18.5344C96.7965 18.5344 97.2424 18.6286 97.6547 18.811C98.067 18.9935 98.4367 19.26 98.7399 19.5937C99.0432 19.9273 99.2734 20.3207 99.4157 20.7485C99.558 21.1763 99.6094 21.6292 99.5664 22.078C99.6102 22.5273 99.5594 22.9807 99.4175 23.4092C99.2755 23.8378 99.0455 24.2318 98.7422 24.5661C98.4388 24.9004 98.0689 25.1676 97.6562 25.3504C97.2435 25.5332 96.797 25.6277 96.3456 25.6277C95.8942 25.6277 95.4478 25.5332 95.0351 25.3504C94.6223 25.1676 94.2524 24.9004 93.9491 24.5661C93.6458 24.2318 93.4157 23.8378 93.2738 23.4092C93.1318 22.9807 93.0811 22.5273 93.1248 22.078ZM98.18 22.078C98.18 20.5976 97.515 19.7318 96.3479 19.7318C95.1763 19.7318 94.5172 20.5976 94.5172 22.078C94.5172 23.5703 95.1763 24.4293 96.3479 24.4293C97.515 24.4293 98.1801 23.5643 98.18 22.078ZM106.731 25.4957H108.129L110.004 18.6661H108.656L107.439 23.8775H107.332L105.928 18.6661H104.635L103.231 23.8775H103.13L101.907 18.6661H100.54L102.422 25.4957H103.807L105.213 20.4657H105.319L106.731 25.4957ZM111.588 18.6661H112.885V19.7511H112.986C113.157 19.3614 113.445 19.0348 113.81 18.8166C114.176 18.5985 114.6 18.4998 115.024 18.5343C115.356 18.5093 115.69 18.5594 116 18.6809C116.311 18.8024 116.59 18.9921 116.817 19.2361C117.044 19.48 117.213 19.772 117.312 20.0902C117.411 20.4084 117.437 20.7448 117.388 21.0745V25.4957H116.04V21.413C116.04 20.3154 115.563 19.7696 114.566 19.7696C114.341 19.7591 114.115 19.7975 113.906 19.8822C113.697 19.9669 113.508 20.0958 113.353 20.2602C113.198 20.4246 113.081 20.6205 113.009 20.8346C112.937 21.0486 112.912 21.2757 112.935 21.5003V25.4958H111.588L111.588 18.6661ZM122.757 22.0779C122.714 21.6291 122.765 21.1762 122.908 20.7484C123.05 20.3206 123.28 19.9272 123.584 19.5935C123.887 19.2599 124.257 18.9933 124.669 18.8109C125.081 18.6284 125.527 18.5342 125.978 18.5342C126.429 18.5342 126.875 18.6284 127.287 18.8109C127.7 18.9933 128.069 19.2599 128.373 19.5935C128.676 19.9272 128.906 20.3206 129.048 20.7484C129.191 21.1762 129.242 21.6291 129.199 22.0779C129.243 22.5272 129.192 22.9807 129.05 23.4092C128.908 23.8377 128.678 24.2318 128.375 24.5661C128.071 24.9004 127.701 25.1675 127.289 25.3503C126.876 25.5331 126.43 25.6276 125.978 25.6276C125.527 25.6276 125.08 25.5331 124.668 25.3503C124.255 25.1675 123.885 24.9004 123.581 24.5661C123.278 24.2318 123.048 23.8377 122.906 23.4092C122.764 22.9807 122.713 22.5272 122.757 22.0779ZM127.812 22.0779C127.812 20.5975 127.147 19.7318 125.98 19.7318C124.808 19.7318 124.149 20.5975 124.149 22.078C124.149 23.5702 124.808 24.4293 125.98 24.4293C127.147 24.4293 127.812 23.5643 127.812 22.0779ZM133.158 21.5255C131.534 21.6263 130.618 22.335 130.618 23.5644C130.619 23.8526 130.681 24.1374 130.799 24.4004C130.917 24.6635 131.089 24.8989 131.303 25.0914C131.518 25.284 131.77 25.4295 132.044 25.5185C132.318 25.6076 132.608 25.6381 132.895 25.6083C133.301 25.6271 133.705 25.5377 134.065 25.3493C134.426 25.161 134.73 24.8803 134.946 24.536H135.053V25.4958H136.35V20.8294C136.35 19.3867 135.385 18.5343 133.672 18.5343C132.123 18.5343 131.02 19.2868 130.882 20.4598H132.187C132.336 19.977 132.858 19.7007 133.61 19.7007C134.531 19.7007 135.008 20.1081 135.008 20.8294V21.4189L133.158 21.5255ZM135.008 22.4098V22.9808C134.994 23.1962 134.936 23.4065 134.839 23.5992C134.741 23.7918 134.606 23.9629 134.441 24.1022C134.276 24.2415 134.084 24.3462 133.878 24.41C133.672 24.4738 133.455 24.4955 133.24 24.4738C132.507 24.4738 131.973 24.1161 131.973 23.5014C131.973 22.8993 132.4 22.5794 133.341 22.5164L135.008 22.4098ZM138.122 22.078C138.122 19.9199 139.231 18.5528 140.957 18.5528C141.384 18.5331 141.807 18.6354 142.178 18.8476C142.549 19.0597 142.852 19.3731 143.051 19.751H143.152V16H144.5V25.4957H143.208V24.4167H143.102C142.887 24.7921 142.573 25.1015 142.195 25.3116C141.817 25.5216 141.389 25.6242 140.957 25.6083C139.22 25.6084 138.122 24.2412 138.122 22.078ZM139.514 22.078C139.514 23.5266 140.197 24.3982 141.339 24.3982C142.475 24.3982 143.177 23.514 143.177 22.0839C143.177 20.6605 142.468 19.7637 141.339 19.7637C140.204 19.7637 139.514 20.6412 139.514 22.078ZM150.227 20.7485C150.085 21.1763 150.034 21.6292 150.076 22.078C150.033 22.5273 150.083 22.9807 150.225 23.4092C150.367 23.8378 150.597 24.2318 150.901 24.5661C151.204 24.9004 151.574 25.1676 151.987 25.3504C152.399 25.5332 152.846 25.6277 153.297 25.6277C153.749 25.6277 154.195 25.5332 154.608 25.3504C155.021 25.1676 155.39 24.9004 155.694 24.5661C155.997 24.2318 156.227 23.8378 156.369 23.4092C156.511 22.9807 156.562 22.5273 156.518 22.078C156.561 21.6292 156.51 21.1763 156.367 20.7485C156.225 20.3207 155.995 19.9273 155.692 19.5937C155.388 19.26 155.019 18.9935 154.606 18.811C154.194 18.6286 153.748 18.5344 153.297 18.5344C152.846 18.5344 152.4 18.6286 151.988 18.811C151.576 18.9935 151.206 19.26 150.903 19.5937C150.6 19.9273 150.37 20.3207 150.227 20.7485ZM153.299 19.7318C154.467 19.7318 155.132 20.5976 155.132 22.078C155.132 23.5643 154.467 24.4293 153.299 24.4293C152.128 24.4293 151.469 23.5703 151.469 22.078C151.469 20.5976 152.128 19.7318 153.299 19.7318ZM158.326 18.6661H159.624V19.7511H159.725C159.895 19.3614 160.184 19.0348 160.549 18.8166C160.914 18.5985 161.339 18.4998 161.763 18.5343C162.095 18.5093 162.429 18.5594 162.739 18.6809C163.049 18.8024 163.328 18.9921 163.555 19.2361C163.782 19.48 163.952 19.772 164.05 20.0902C164.149 20.4084 164.175 20.7448 164.127 21.0745V25.4957H162.779V21.413C162.779 20.3154 162.302 19.7696 161.305 19.7696C161.079 19.7591 160.854 19.7975 160.645 19.8822C160.435 19.9669 160.247 20.0958 160.092 20.2602C159.937 20.4246 159.819 20.6205 159.747 20.8346C159.675 21.0486 159.65 21.2757 159.674 21.5003V25.4958H158.326V18.6661ZM171.743 18.6972V16.9657H170.393V18.6971H169.309V19.8325H170.393V23.6894C170.393 25.0062 170.99 25.5335 172.489 25.5335C172.735 25.531 172.98 25.5079 173.222 25.4646V24.3419C173.052 24.3621 172.88 24.3725 172.709 24.373C172.038 24.373 171.743 24.0598 171.743 23.3444V19.8325H173.222V18.6972H171.743ZM175.064 16H176.4V19.7636H176.506C176.686 19.3703 176.982 19.0418 177.354 18.8229C177.727 18.604 178.158 18.5052 178.589 18.5402C178.919 18.5222 179.25 18.5774 179.557 18.7018C179.863 18.8263 180.139 19.0169 180.364 19.2601C180.588 19.5033 180.757 19.793 180.856 20.1087C180.956 20.4244 180.985 20.7582 180.941 21.0863V25.4958H179.592V21.4188C179.592 20.328 179.084 19.7755 178.131 19.7755C177.9 19.7565 177.667 19.7883 177.448 19.8688C177.23 19.9493 177.033 20.0764 176.869 20.2413C176.705 20.4062 176.579 20.605 176.5 20.8236C176.421 21.0422 176.391 21.2754 176.412 21.507V25.4957H175.064L175.064 16ZM187.679 25.177C188.22 24.8158 188.617 24.2759 188.8 23.6517L187.502 23.6516C187.344 23.9353 187.105 24.1654 186.816 24.3128C186.527 24.4603 186.2 24.5183 185.878 24.4796C185.626 24.4824 185.377 24.4326 185.146 24.3334C184.914 24.2342 184.707 24.0879 184.535 23.9036C184.364 23.7194 184.233 23.5015 184.151 23.2637C184.069 23.026 184.038 22.7737 184.059 22.5231V22.4475H188.881V21.9772C188.881 19.8326 187.735 18.5343 185.835 18.5343C185.383 18.5304 184.937 18.6236 184.524 18.8074C184.112 18.9913 183.745 19.2615 183.446 19.5998C183.147 19.9382 182.925 20.3367 182.794 20.7685C182.663 21.2002 182.626 21.6551 182.686 22.1024C182.624 22.5483 182.66 23.0022 182.792 23.4327C182.923 23.8632 183.147 24.2599 183.447 24.5953C183.747 24.9307 184.117 25.1967 184.53 25.375C184.943 25.5533 185.391 25.6394 185.841 25.6276C186.487 25.6977 187.138 25.5382 187.679 25.177ZM187.508 21.4507H184.059C184.056 21.2176 184.099 20.9862 184.187 20.7702C184.275 20.5543 184.405 20.3581 184.57 20.1932C184.735 20.0283 184.931 19.8981 185.147 19.8102C185.363 19.7223 185.594 19.6785 185.827 19.6814C186.057 19.6762 186.285 19.719 186.498 19.8073C186.71 19.8955 186.901 20.0272 187.059 20.1938C187.218 20.3604 187.34 20.5583 187.417 20.7748C187.494 20.9912 187.525 21.2215 187.508 21.4507Z" fill="#1C232D"/>
</svg>
