<svg width="82" height="50" viewBox="0 0 82 50" fill="none" xmlns="http://www.w3.org/2000/svg">
<rect x="1" y="1" width="80" height="48" rx="24" fill="white" stroke="#EBECF0"/>
<rect width="24" height="24" transform="translate(29 13)" fill="white"/>
<path fill-rule="evenodd" clip-rule="evenodd" d="M30 15.838C30 15.3505 30.1936 14.883 30.5383 14.5383C30.883 14.1936 31.3505 14 31.838 14H50.16C50.4016 13.9996 50.6409 14.0469 50.8641 14.1391C51.0874 14.2313 51.2903 14.3666 51.4612 14.5373C51.6322 14.7081 51.7677 14.9108 51.8602 15.134C51.9526 15.3572 52.0001 15.5964 52 15.838V34.16C52.0003 34.4016 51.9529 34.6409 51.8606 34.8642C51.7683 35.0875 51.6328 35.2904 51.462 35.4613C51.2912 35.6322 51.0884 35.7678 50.8651 35.8602C50.6419 35.9526 50.4026 36.0001 50.161 36H31.838C31.5965 36 31.3575 35.9524 31.1344 35.86C30.9113 35.7676 30.7087 35.6321 30.538 35.4613C30.3673 35.2905 30.2319 35.0878 30.1396 34.8647C30.0473 34.6416 29.9999 34.4025 30 34.161V15.838ZM38.708 22.388H41.687V23.884C42.117 23.024 43.217 22.25 44.87 22.25C48.039 22.25 48.79 23.963 48.79 27.106V32.928H45.583V27.822C45.583 26.032 45.153 25.022 44.061 25.022C42.546 25.022 41.916 26.111 41.916 27.822V32.928H38.708V22.388ZM33.208 32.791H36.416V22.25H33.208V32.79V32.791ZM36.875 18.812C36.881 19.0867 36.8322 19.3598 36.7312 19.6153C36.6303 19.8708 36.4794 20.1036 36.2872 20.3C36.0951 20.4964 35.8657 20.6525 35.6125 20.759C35.3592 20.8655 35.0872 20.9204 34.8125 20.9204C34.5378 20.9204 34.2658 20.8655 34.0125 20.759C33.7593 20.6525 33.5299 20.4964 33.3378 20.3C33.1456 20.1036 32.9947 19.8708 32.8938 19.6153C32.7928 19.3598 32.744 19.0867 32.75 18.812C32.7619 18.2729 32.9844 17.7598 33.3699 17.3827C33.7554 17.0056 34.2732 16.7944 34.8125 16.7944C35.3518 16.7944 35.8696 17.0056 36.2551 17.3827C36.6406 17.7598 36.8631 18.2729 36.875 18.812Z" fill="#707989"/>
</svg>
