<svg width="82" height="50" viewBox="0 0 82 50" fill="none" xmlns="http://www.w3.org/2000/svg">
<rect x="1" y="1" width="80" height="48" rx="24" fill="white" stroke="#EBECF0"/>
<g clip-path="url(#clip0)">
<rect width="24" height="24" transform="translate(29 13)" fill="white"/>
<path d="M52.9523 17.5697C52.054 17.9646 51.1026 18.2254 50.1285 18.3437C51.1553 17.7275 51.924 16.76 52.2923 15.6205C51.3211 16.1837 50.2641 16.5838 49.1633 16.8047C48.4231 16.0138 47.4425 15.4893 46.3738 15.3126C45.305 15.1359 44.2078 15.3168 43.2524 15.8274C42.297 16.3379 41.5368 17.1495 41.0897 18.1362C40.6426 19.1229 40.5337 20.2296 40.7798 21.2845C36.69 21.0932 33.0645 19.1282 30.6398 16.1597C30.1984 16.9104 29.9676 17.7662 29.9715 18.637C29.9709 19.4465 30.1703 20.2437 30.5518 20.9576C30.9333 21.6716 31.4852 22.2803 32.1585 22.7297C31.3783 22.7062 30.615 22.4961 29.9325 22.117V22.1762C29.9323 23.3125 30.325 24.4139 31.0439 25.2938C31.7629 26.1736 32.764 26.7779 33.8775 27.004C33.4557 27.1167 33.0211 27.1744 32.5845 27.1757C32.2688 27.1757 31.9673 27.145 31.6665 27.0895C31.9834 28.0673 32.5973 28.922 33.4227 29.5345C34.2481 30.1471 35.2439 30.4871 36.2715 30.5072C34.5304 31.8708 32.3819 32.6106 30.1703 32.608C29.7786 32.6095 29.3871 32.5875 28.998 32.542C31.2541 33.9876 33.8778 34.755 36.5573 34.753C45.6075 34.753 50.553 27.2567 50.553 20.7647C50.553 20.5577 50.553 20.347 50.5373 20.1355C51.5047 19.4422 52.3384 18.5792 52.998 17.5885L52.9523 17.5697Z" fill="#707989"/>
</g>
<defs>
<clipPath id="clip0">
<rect width="24" height="24" fill="white" transform="translate(29 13)"/>
</clipPath>
</defs>
</svg>
