<svg width="241" height="70" viewBox="0 0 241 70" fill="none" xmlns="http://www.w3.org/2000/svg">
<rect width="241" height="70" rx="35" fill="white"/>
<path fill-rule="evenodd" clip-rule="evenodd" d="M87.5251 22.3837C87.5251 23.1479 87.2477 23.7474 86.6928 24.1824C86.1379 24.6174 85.3725 24.8349 84.3966 24.8349C83.4206 24.8349 82.6218 24.684 82 24.3823V23.0538C82.3935 23.238 82.8107 23.383 83.2514 23.4888C83.6961 23.5946 84.1093 23.6475 84.491 23.6475C85.0498 23.6475 85.4611 23.5417 85.7247 23.3301C85.9923 23.1185 86.1261 22.8343 86.1261 22.4777C86.1261 22.1564 86.0041 21.884 85.7601 21.6607C85.5161 21.4373 85.0124 21.1728 84.249 20.8671C83.4619 20.5497 82.9071 20.1872 82.5844 19.7797C82.2617 19.3721 82.1003 18.8823 82.1003 18.3101C82.1003 17.593 82.3561 17.0287 82.8677 16.6172C83.3793 16.2057 84.066 16 84.9278 16C85.7542 16 86.5767 16.1803 87.3952 16.5408L86.9466 17.687C86.1792 17.3657 85.4945 17.205 84.8924 17.205C84.4359 17.205 84.0896 17.305 83.8535 17.5048C83.6174 17.7007 83.4993 17.9613 83.4993 18.2866C83.4993 18.51 83.5466 18.702 83.641 18.8627C83.7354 19.0194 83.8909 19.1683 84.1073 19.3094C84.3238 19.4505 84.7134 19.6366 85.2761 19.8678C85.9097 20.1304 86.374 20.3753 86.6692 20.6026C86.9643 20.8299 87.1808 21.0866 87.3185 21.3726C87.4562 21.6587 87.5251 21.9957 87.5251 22.3837ZM94.597 21.4549C94.597 22.5169 94.3235 23.3457 93.7765 23.9414C93.2295 24.5371 92.468 24.8349 91.4921 24.8349C90.8821 24.8349 90.343 24.6977 89.8747 24.4234C89.4064 24.1491 89.0463 23.7553 88.7944 23.2419C88.5426 22.7285 88.4167 22.1329 88.4167 21.4549C88.4167 20.4008 88.6882 19.5778 89.2313 18.9861C89.7743 18.3944 90.5397 18.0985 91.5275 18.0985C92.4719 18.0985 93.2196 18.4022 93.7706 19.0096C94.3215 19.6131 94.597 20.4282 94.597 21.4549ZM89.8452 21.4549C89.8452 22.9558 90.402 23.7063 91.5157 23.7063C92.6175 23.7063 93.1685 22.9558 93.1685 21.4549C93.1685 19.9697 92.6136 19.2271 91.5039 19.2271C90.9215 19.2271 90.4984 19.4191 90.2347 19.8032C89.975 20.1872 89.8452 20.7378 89.8452 21.4549ZM100.925 23.9414C101.472 23.3457 101.746 22.5169 101.746 21.4549C101.746 20.4282 101.47 19.6131 100.919 19.0096C100.368 18.4022 99.6206 18.0985 98.6761 18.0985C97.6884 18.0985 96.9229 18.3944 96.3799 18.9861C95.8368 19.5778 95.5653 20.4008 95.5653 21.4549C95.5653 22.1329 95.6912 22.7285 95.9431 23.2419C96.1949 23.7553 96.555 24.1491 97.0233 24.4234C97.4916 24.6977 98.0307 24.8349 98.6407 24.8349C99.6166 24.8349 100.378 24.5371 100.925 23.9414ZM98.6643 23.7063C97.5506 23.7063 96.9938 22.9558 96.9938 21.4549C96.9938 20.7378 97.1236 20.1872 97.3834 19.8032C97.647 19.4191 98.0701 19.2271 98.6525 19.2271C99.7622 19.2271 100.317 19.9697 100.317 21.4549C100.317 22.9558 99.7662 23.7063 98.6643 23.7063ZM108.847 24.7173H107.454V20.7202C107.454 20.2186 107.352 19.8443 107.147 19.5974C106.946 19.3506 106.626 19.2271 106.185 19.2271C105.598 19.2271 105.169 19.3995 104.898 19.7444C104.626 20.0892 104.491 20.6673 104.491 21.4785V24.7173H103.103V18.2161H104.19L104.384 19.0684H104.455C104.652 18.7588 104.931 18.5198 105.293 18.3513C105.656 18.1828 106.057 18.0985 106.498 18.0985C108.064 18.0985 108.847 18.8921 108.847 20.4792V24.7173ZM118.404 23.9414C118.951 23.3457 119.225 22.5169 119.225 21.4549C119.225 20.4282 118.949 19.6131 118.398 19.0096C117.847 18.4022 117.1 18.0985 116.155 18.0985C115.167 18.0985 114.402 18.3944 113.859 18.9861C113.316 19.5778 113.044 20.4008 113.044 21.4549C113.044 22.1329 113.17 22.7285 113.422 23.2419C113.674 23.7553 114.034 24.1491 114.502 24.4234C114.971 24.6977 115.51 24.8349 116.12 24.8349C117.096 24.8349 117.857 24.5371 118.404 23.9414ZM116.143 23.7063C115.03 23.7063 114.473 22.9558 114.473 21.4549C114.473 20.7378 114.603 20.1872 114.862 19.8032C115.126 19.4191 115.549 19.2271 116.132 19.2271C117.241 19.2271 117.796 19.9697 117.796 21.4549C117.796 22.9558 117.245 23.7063 116.143 23.7063ZM126.326 24.7173H124.933V20.7202C124.933 20.2186 124.831 19.8443 124.626 19.5974C124.425 19.3506 124.105 19.2271 123.664 19.2271C123.078 19.2271 122.649 19.3995 122.377 19.7444C122.106 20.0892 121.97 20.6673 121.97 21.4785V24.7173H120.583V18.2161H121.669L121.864 19.0684H121.934C122.131 18.7588 122.411 18.5198 122.773 18.3513C123.135 18.1828 123.536 18.0985 123.977 18.0985C125.543 18.0985 126.326 18.8921 126.326 20.4792V24.7173ZM173.581 48.3284H176.178V30.9342H173.581V48.3284ZM196.967 37.2L193.99 44.7412H193.901L190.813 37.2H188.016L192.648 47.7402L190.007 53.6032H192.716L199.854 37.2H196.967ZM182.243 46.3527C181.391 46.3527 180.206 45.9277 180.206 44.8755C180.206 43.5329 181.684 43.0182 182.958 43.0182C184.1 43.0182 184.636 43.2644 185.33 43.6004C185.129 45.2114 183.741 46.3527 182.243 46.3527ZM182.556 36.8194C180.676 36.8194 178.73 37.6477 177.924 39.4827L180.228 40.4447C180.721 39.4827 181.638 39.1691 182.6 39.1691C183.943 39.1691 185.308 39.9751 185.33 41.4073V41.5861C184.86 41.3175 183.854 40.9149 182.623 40.9149C180.139 40.9149 177.61 42.2795 177.61 44.8308C177.61 47.1582 179.647 48.6577 181.928 48.6577C183.675 48.6577 184.636 47.8745 185.241 46.9572H185.33V48.2996H187.836V41.6306C187.836 38.5429 185.532 36.8194 182.556 36.8194ZM166.51 39.3174H162.818V33.3551H166.51C168.451 33.3551 169.553 34.9622 169.553 36.3362C169.553 37.6842 168.451 39.3174 166.51 39.3174ZM166.444 30.9342H160.223V48.3284H162.818V41.7383H166.444C169.321 41.7383 172.15 39.6549 172.15 36.3362C172.15 33.0175 169.321 30.9342 166.444 30.9342ZM132.52 46.3559C130.726 46.3559 129.224 44.8542 129.224 42.7916C129.224 40.7073 130.726 39.1827 132.52 39.1827C134.291 39.1827 135.68 40.7073 135.68 42.7916C135.68 44.8542 134.291 46.3559 132.52 46.3559ZM135.501 38.1739H135.411C134.829 37.4792 133.707 36.8515 132.295 36.8515C129.336 36.8515 126.624 39.4517 126.624 42.7916C126.624 46.1092 129.336 48.6871 132.295 48.6871C133.707 48.6871 134.829 48.0593 135.411 47.3424H135.501V48.1941C135.501 50.4585 134.291 51.6689 132.34 51.6689C130.749 51.6689 129.763 50.5253 129.359 49.5616L127.095 50.503C127.745 52.0721 129.471 54 132.34 54C135.389 54 137.967 52.2064 137.967 47.8354V37.2103H135.501V38.1739ZM139.76 48.3284H142.36V30.9336H139.76V48.3284ZM146.193 42.59C146.126 40.3033 147.964 39.138 149.287 39.138C150.319 39.138 151.192 39.6533 151.483 40.3936L146.193 42.59ZM154.263 40.6175C153.771 39.2946 152.268 36.8515 149.197 36.8515C146.148 36.8515 143.616 39.25 143.616 42.7693C143.616 46.087 146.126 48.6871 149.488 48.6871C152.201 48.6871 153.771 47.0283 154.42 46.0646L152.403 44.7194C151.731 45.7059 150.811 46.3559 149.488 46.3559C148.166 46.3559 147.225 45.7505 146.619 44.5628L154.532 41.2898L154.263 40.6175ZM91.2213 38.6673V41.1778H97.2287C97.0493 42.59 96.5786 43.621 95.8612 44.3384C94.9873 45.2129 93.6198 46.1766 91.2213 46.1766C87.5226 46.1766 84.6311 43.1954 84.6311 39.4967C84.6311 35.7981 87.5226 32.8165 91.2213 32.8165C93.2164 32.8165 94.6731 33.6012 95.7492 34.61L97.52 32.8393C96.0183 31.4044 94.023 30.306 91.2213 30.306C86.1551 30.306 81.8961 34.4307 81.8961 39.4967C81.8961 44.5628 86.1551 48.6871 91.2213 48.6871C93.9563 48.6871 96.0183 47.7909 97.6321 46.1092C99.2909 44.4504 99.8067 42.1193 99.8067 40.2365C99.8067 39.6533 99.762 39.1158 99.6719 38.6673H91.2213ZM106.637 46.3559C104.843 46.3559 103.296 44.8765 103.296 42.7693C103.296 40.6398 104.843 39.1827 106.637 39.1827C108.429 39.1827 109.976 40.6398 109.976 42.7693C109.976 44.8765 108.429 46.3559 106.637 46.3559ZM106.637 36.8515C103.363 36.8515 100.696 39.3397 100.696 42.7693C100.696 46.1766 103.363 48.6871 106.637 48.6871C109.909 48.6871 112.577 46.1766 112.577 42.7693C112.577 39.3397 109.909 36.8515 106.637 36.8515ZM119.595 46.3559C117.802 46.3559 116.255 44.8765 116.255 42.7693C116.255 40.6398 117.802 39.1827 119.595 39.1827C121.388 39.1827 122.935 40.6398 122.935 42.7693C122.935 44.8765 121.388 46.3559 119.595 46.3559ZM119.595 36.8515C116.322 36.8515 113.655 39.3397 113.655 42.7693C113.655 46.1766 116.322 48.6871 119.595 48.6871C122.867 48.6871 125.535 46.1766 125.535 42.7693C125.535 39.3397 122.867 36.8515 119.595 36.8515ZM41.1461 22.9583V47.0417C41.1461 47.8775 41.6278 48.6 42.3361 48.9542L56.2903 35L42.3361 21.0458C41.6278 21.3858 41.1461 22.1225 41.1461 22.9583ZM45.467 48.2317L60.7103 39.42L57.4945 36.2042L45.467 48.2317ZM66.292 35C66.292 34.2917 65.9378 33.6967 65.4561 33.3142L62.2403 31.4583L58.6986 35L62.2403 38.5417L65.4845 36.6717C65.9803 36.275 66.292 35.7083 66.292 35ZM60.7103 30.58L45.467 21.7683L57.4945 33.7958L60.7103 30.58Z" fill="#1C232D"/>
</svg>
