<svg width="80" height="48" viewBox="0 0 80 48" fill="none" xmlns="http://www.w3.org/2000/svg">
<path fill-rule="evenodd" clip-rule="evenodd" d="M29 14.838C29 14.3505 29.1936 13.883 29.5383 13.5383C29.883 13.1936 30.3505 13 30.838 13H49.16C49.4016 12.9996 49.6409 13.0469 49.8641 13.1391C50.0874 13.2313 50.2903 13.3666 50.4612 13.5373C50.6322 13.7081 50.7677 13.9108 50.8602 14.134C50.9526 14.3572 51.0001 14.5964 51 14.838V33.16C51.0003 33.4016 50.9529 33.6409 50.8606 33.8642C50.7683 34.0875 50.6328 34.2904 50.462 34.4613C50.2912 34.6322 50.0884 34.7678 49.8651 34.8602C49.6419 34.9526 49.4026 35.0001 49.161 35H30.838C30.5965 35 30.3575 34.9524 30.1344 34.86C29.9113 34.7676 29.7087 34.6321 29.538 34.4613C29.3673 34.2905 29.2319 34.0878 29.1396 33.8647C29.0473 33.6416 28.9999 33.4025 29 33.161V14.838ZM37.708 21.388H40.687V22.884C41.117 22.024 42.217 21.25 43.87 21.25C47.039 21.25 47.79 22.963 47.79 26.106V31.928H44.583V26.822C44.583 25.032 44.153 24.022 43.061 24.022C41.546 24.022 40.916 25.111 40.916 26.822V31.928H37.708V21.388ZM32.208 31.791H35.416V21.25H32.208V31.79V31.791ZM35.875 17.812C35.881 18.0867 35.8322 18.3598 35.7312 18.6153C35.6303 18.8708 35.4794 19.1036 35.2872 19.3C35.0951 19.4964 34.8657 19.6525 34.6125 19.759C34.3592 19.8655 34.0872 19.9204 33.8125 19.9204C33.5378 19.9204 33.2658 19.8655 33.0125 19.759C32.7593 19.6525 32.5299 19.4964 32.3378 19.3C32.1456 19.1036 31.9947 18.8708 31.8938 18.6153C31.7928 18.3598 31.744 18.0867 31.75 17.812C31.7619 17.2729 31.9844 16.7598 32.3699 16.3827C32.7554 16.0056 33.2732 15.7944 33.8125 15.7944C34.3518 15.7944 34.8696 16.0056 35.2551 16.3827C35.6406 16.7598 35.8631 17.2729 35.875 17.812V17.812Z" fill="#707989"/>
</svg>
