<svg width="241" height="70" viewBox="0 0 241 70" fill="none" xmlns="http://www.w3.org/2000/svg">
<rect width="241" height="70" rx="35" fill="#6500D3"/>
<path fill-rule="evenodd" clip-rule="evenodd" d="M88.6928 24.1824C89.2477 23.7474 89.5251 23.1479 89.5251 22.3837C89.5251 21.9957 89.4562 21.6587 89.3185 21.3726C89.1808 21.0866 88.9643 20.8299 88.6692 20.6026C88.374 20.3753 87.9097 20.1304 87.2761 19.8678C86.7134 19.6366 86.3238 19.4505 86.1073 19.3094C85.8909 19.1683 85.7354 19.0194 85.641 18.8627C85.5466 18.702 85.4993 18.51 85.4993 18.2866C85.4993 17.9613 85.6174 17.7007 85.8535 17.5048C86.0896 17.305 86.4359 17.205 86.8924 17.205C87.4945 17.205 88.1792 17.3657 88.9466 17.687L89.3952 16.5408C88.5767 16.1803 87.7542 16 86.9278 16C86.066 16 85.3793 16.2057 84.8677 16.6172C84.3561 17.0287 84.1003 17.593 84.1003 18.3101C84.1003 18.8823 84.2617 19.3721 84.5844 19.7797C84.9071 20.1872 85.4619 20.5497 86.249 20.8671C87.0124 21.1728 87.5161 21.4373 87.7601 21.6607C88.0041 21.884 88.1261 22.1564 88.1261 22.4777C88.1261 22.8343 87.9923 23.1185 87.7247 23.3301C87.4611 23.5417 87.0498 23.6475 86.491 23.6475C86.1093 23.6475 85.6961 23.5946 85.2514 23.4888C84.8107 23.383 84.3935 23.238 84 23.0538V24.3823C84.6218 24.684 85.4206 24.8349 86.3966 24.8349C87.3725 24.8349 88.1379 24.6174 88.6928 24.1824ZM95.7765 23.9414C96.3235 23.3457 96.597 22.5169 96.597 21.4549C96.597 20.4282 96.3215 19.6131 95.7706 19.0096C95.2196 18.4022 94.4719 18.0985 93.5275 18.0985C92.5397 18.0985 91.7743 18.3944 91.2313 18.9861C90.6882 19.5778 90.4167 20.4008 90.4167 21.4549C90.4167 22.1329 90.5426 22.7285 90.7944 23.2419C91.0463 23.7553 91.4064 24.1491 91.8747 24.4234C92.343 24.6977 92.8821 24.8349 93.4921 24.8349C94.468 24.8349 95.2295 24.5371 95.7765 23.9414ZM93.5157 23.7063C92.402 23.7063 91.8452 22.9558 91.8452 21.4549C91.8452 20.7378 91.975 20.1872 92.2347 19.8032C92.4984 19.4191 92.9215 19.2271 93.5039 19.2271C94.6136 19.2271 95.1685 19.9697 95.1685 21.4549C95.1685 22.9558 94.6175 23.7063 93.5157 23.7063ZM103.746 21.4549C103.746 22.5169 103.472 23.3457 102.925 23.9414C102.378 24.5371 101.617 24.8349 100.641 24.8349C100.031 24.8349 99.4916 24.6977 99.0233 24.4234C98.555 24.1491 98.1949 23.7553 97.9431 23.2419C97.6912 22.7285 97.5653 22.1329 97.5653 21.4549C97.5653 20.4008 97.8368 19.5778 98.3799 18.9861C98.9229 18.3944 99.6884 18.0985 100.676 18.0985C101.621 18.0985 102.368 18.4022 102.919 19.0096C103.47 19.6131 103.746 20.4282 103.746 21.4549ZM98.9938 21.4549C98.9938 22.9558 99.5506 23.7063 100.664 23.7063C101.766 23.7063 102.317 22.9558 102.317 21.4549C102.317 19.9697 101.762 19.2271 100.652 19.2271C100.07 19.2271 99.647 19.4191 99.3834 19.8032C99.1236 20.1872 98.9938 20.7378 98.9938 21.4549ZM109.454 24.7173H110.847V20.4792C110.847 18.8921 110.064 18.0985 108.498 18.0985C108.057 18.0985 107.655 18.1828 107.293 18.3513C106.931 18.5198 106.652 18.7588 106.455 19.0684H106.384L106.19 18.2161H105.103V24.7173H106.491V21.4785C106.491 20.6673 106.626 20.0892 106.898 19.7444C107.169 19.3995 107.598 19.2271 108.185 19.2271C108.626 19.2271 108.946 19.3506 109.147 19.5974C109.352 19.8443 109.454 20.2186 109.454 20.7202V24.7173ZM121.225 21.4549C121.225 22.5169 120.951 23.3457 120.404 23.9414C119.857 24.5371 119.096 24.8349 118.12 24.8349C117.51 24.8349 116.971 24.6977 116.502 24.4234C116.034 24.1491 115.674 23.7553 115.422 23.2419C115.17 22.7285 115.044 22.1329 115.044 21.4549C115.044 20.4008 115.316 19.5778 115.859 18.9861C116.402 18.3944 117.167 18.0985 118.155 18.0985C119.1 18.0985 119.847 18.4022 120.398 19.0096C120.949 19.6131 121.225 20.4282 121.225 21.4549ZM116.473 21.4549C116.473 22.9558 117.03 23.7063 118.143 23.7063C119.245 23.7063 119.796 22.9558 119.796 21.4549C119.796 19.9697 119.241 19.2271 118.132 19.2271C117.549 19.2271 117.126 19.4191 116.862 19.8032C116.603 20.1872 116.473 20.7378 116.473 21.4549ZM126.933 24.7173H128.326V20.4792C128.326 18.8921 127.543 18.0985 125.977 18.0985C125.536 18.0985 125.135 18.1828 124.773 18.3513C124.411 18.5198 124.131 18.7588 123.934 19.0684H123.864L123.669 18.2161H122.583V24.7173H123.97V21.4785C123.97 20.6673 124.106 20.0892 124.377 19.7444C124.649 19.3995 125.078 19.2271 125.664 19.2271C126.105 19.2271 126.425 19.3506 126.626 19.5974C126.831 19.8443 126.933 20.2186 126.933 20.7202V24.7173ZM63.3313 21.7239C64.5622 20.2463 65.1685 18.3471 65.0217 16.4296C63.1412 16.6271 61.4042 17.5259 60.1567 18.9468C59.5468 19.6409 59.0797 20.4485 58.782 21.3233C58.4844 22.1981 58.362 23.1229 58.4221 24.045C59.3626 24.0547 60.2931 23.8508 61.1435 23.4488C61.9939 23.0467 62.7419 22.4569 63.3313 21.7239ZM67.4745 33.9938C67.4908 32.7279 67.8271 31.4866 68.452 30.3855C69.0769 29.2845 69.9702 28.3594 71.0488 27.6963C70.3636 26.7178 69.4597 25.9125 68.4089 25.3444C67.3581 24.7763 66.1893 24.4611 64.9953 24.4237C63.4374 24.2602 61.9086 24.867 60.6591 25.3629C59.866 25.6777 59.1854 25.9478 58.6814 25.9478C58.1081 25.9478 57.4079 25.6666 56.6235 25.3514C55.5977 24.9394 54.4276 24.4695 53.2083 24.4945C51.8165 24.5395 50.46 24.9443 49.2711 25.6693C48.0822 26.3944 47.1014 27.4151 46.4242 28.6319C43.4909 33.7105 45.6789 41.1743 48.4888 45.2795C49.8946 47.2897 51.5376 49.5351 53.6875 49.4555C54.6627 49.415 55.3547 49.1238 56.0695 48.823C56.8966 48.4749 57.7542 48.114 59.1164 48.114C60.4009 48.114 61.2217 48.4636 62.0094 48.7992C62.7646 49.1209 63.4893 49.4296 64.5629 49.4048C66.8204 49.3682 68.2427 47.3857 69.5992 45.3565C70.6093 43.9242 71.3865 42.3412 71.9022 40.6661C70.5907 40.1114 69.4715 39.1829 68.6841 37.9963C67.8967 36.8098 67.4761 35.4178 67.4745 33.9938ZM86.8885 44.3665H94.0677L95.7903 49.4573H98.883L92.0829 30.6228H88.9236L82.1236 49.4573H85.1644L86.8885 44.3665ZM93.3228 42.0174H87.632L90.4389 33.7554H90.5174L93.3228 42.0174ZM113.569 42.5921C113.569 46.8593 111.285 49.6009 107.838 49.6009C106.965 49.6466 106.097 49.4455 105.332 49.0206C104.568 48.5957 103.939 47.9642 103.517 47.1985H103.452V54H100.634V35.7254H103.362V38.0093H103.414C103.855 37.2472 104.495 36.619 105.265 36.1916C106.035 35.7641 106.906 35.5533 107.786 35.5817C111.271 35.5817 113.569 38.3367 113.569 42.5921ZM110.671 42.5921C110.671 39.8119 109.235 37.9842 107.043 37.9842C104.889 37.9842 103.44 39.8504 103.44 42.5921C103.44 45.3589 104.889 47.2118 107.043 47.2118C109.235 47.2118 110.671 45.3974 110.671 42.5921ZM122.952 49.6009C126.399 49.6009 128.683 46.8593 128.683 42.5921C128.683 38.3367 126.385 35.5817 122.9 35.5817C122.02 35.5533 121.148 35.7641 120.379 36.1915C119.609 36.619 118.969 37.2472 118.528 38.0093H118.476V35.7254H115.748V54H118.566V47.1984H118.631C119.053 47.9642 119.682 48.5957 120.446 49.0206C121.211 49.4455 122.079 49.6466 122.952 49.6009ZM122.157 37.9841C124.349 37.9841 125.785 39.8119 125.785 42.5921C125.785 45.3974 124.349 47.2118 122.157 47.2118C120.003 47.2118 118.554 45.3589 118.554 42.5921C118.554 39.8504 120.003 37.9841 122.157 37.9841ZM138.671 44.2095C138.88 46.0772 140.695 47.3036 143.174 47.3036C145.55 47.3036 147.259 46.0772 147.259 44.3931C147.259 42.9312 146.228 42.0558 143.787 41.4559L141.346 40.8679C137.888 40.0325 136.282 38.4151 136.282 35.7905C136.282 32.5408 139.114 30.3087 143.136 30.3087C147.116 30.3087 149.844 32.5408 149.936 35.7905H147.09C146.92 33.9109 145.366 32.7763 143.096 32.7763C140.825 32.7763 139.271 33.9242 139.271 35.595C139.271 36.9265 140.264 37.7101 142.691 38.3099L144.766 38.8194C148.631 39.7333 150.236 41.2856 150.236 44.0405C150.236 47.5642 147.43 49.7711 142.965 49.7711C138.788 49.7711 135.968 47.616 135.786 44.2094L138.671 44.2095ZM156.32 35.7254V32.4757H153.488V35.7254H151.491V37.9575H153.488V45.8284C153.488 48.4915 154.572 49.5357 157.352 49.5357C157.877 49.5455 158.401 49.5018 158.918 49.4054V47.1866C158.61 47.2247 158.3 47.2464 157.99 47.2518C156.842 47.2518 156.32 46.7038 156.32 45.5278V37.9575H158.931V35.7254H156.32ZM160.443 42.5921C160.443 38.2715 162.988 35.5566 166.956 35.5566C170.937 35.5566 173.47 38.2715 173.47 42.5921C173.47 46.9245 170.95 49.6276 166.956 49.6276C162.962 49.6276 160.443 46.9245 160.443 42.5921ZM170.598 42.5921C170.598 39.6283 169.24 37.879 166.956 37.879C164.672 37.879 163.315 39.6416 163.315 42.5921C163.315 45.5677 164.672 47.3037 166.956 47.3037C169.24 47.3037 170.598 45.5677 170.598 42.5921H170.598ZM178.482 35.7254H175.794L175.794 49.4573H178.612V41.3123C178.566 40.9052 178.608 40.4928 178.736 40.1035C178.864 39.7142 179.075 39.3572 179.354 39.0571C179.633 38.7569 179.974 38.5207 180.353 38.3647C180.732 38.2086 181.14 38.1364 181.55 38.153C181.978 38.1405 182.406 38.1981 182.816 38.3234V35.6869C182.499 35.6159 182.175 35.5806 181.85 35.5817C181.099 35.553 180.36 35.784 179.758 36.2358C179.157 36.6876 178.729 37.3327 178.547 38.0627H178.482V35.7254ZM195.812 45.4241C195.433 47.9169 193.005 49.6276 189.899 49.6276C185.904 49.6276 183.425 46.9511 183.425 42.6573C183.425 38.35 185.918 35.5566 189.78 35.5566C193.58 35.5566 195.969 38.1664 195.969 42.3299V43.2956H186.27V43.466C186.225 43.9713 186.289 44.4804 186.456 44.9595C186.623 45.4385 186.89 45.8765 187.239 46.2444C187.589 46.6123 188.012 46.9016 188.482 47.0932C188.952 47.2847 189.457 47.3742 189.964 47.3555C190.63 47.4179 191.299 47.2636 191.87 46.9156C192.441 46.5677 192.885 46.0445 193.135 45.4241L195.812 45.4241ZM186.283 41.3257H193.149C193.174 40.8713 193.105 40.4166 192.946 39.9901C192.787 39.5635 192.542 39.1744 192.226 38.8472C191.91 38.5199 191.529 38.2616 191.108 38.0883C190.688 37.9151 190.235 37.8307 189.78 37.8405C189.321 37.8378 188.866 37.926 188.442 38.1C188.017 38.274 187.631 38.5305 187.306 38.8545C186.981 39.1785 186.723 39.5637 186.547 39.9878C186.372 40.412 186.282 40.8667 186.283 41.3257Z" fill="white"/>
</svg>
