<svg width="64" height="64" viewBox="0 0 64 64" fill="none" xmlns="http://www.w3.org/2000/svg">
<path d="M32 64C49.6731 64 64 49.6731 64 32C64 14.3269 49.6731 0 32 0C14.3269 0 0 14.3269 0 32C0 49.6731 14.3269 64 32 64Z" fill="white"/>
<path d="M32 54.5185C44.4366 54.5185 54.5185 44.4366 54.5185 32C54.5185 19.5633 44.4366 9.48145 32 9.48145C19.5633 9.48145 9.48145 19.5633 9.48145 32C9.48145 44.4366 19.5633 54.5185 32 54.5185Z" fill="white"/>
<path fill-rule="evenodd" clip-rule="evenodd" d="M50.438 13.5618C40.2567 3.38059 23.743 3.38059 13.5617 13.5618C3.38047 23.7431 3.38047 40.2568 13.5617 50.4381C23.743 60.6194 40.2567 60.6194 50.438 50.4381C60.6192 40.2568 60.6192 23.7431 50.438 13.5618ZM35.7064 20.555C35.8405 20.4206 36.013 20.3438 36.1855 20.3246L39.0984 19.9022L40.4015 17.2525C40.5932 16.8493 41.0914 16.6765 41.4939 16.8685C41.6663 16.9453 41.8005 17.0797 41.8772 17.2525L43.1611 19.9022L46.0741 20.3246C46.5148 20.3822 46.8406 20.8046 46.764 21.2462C46.7448 21.4382 46.6298 21.611 46.4957 21.7454L44.4068 23.7806L44.9051 26.6991C44.9817 27.1407 44.6751 27.5631 44.2343 27.6399C44.0235 27.6783 43.8319 27.6399 43.6786 27.5247L41.1106 26.1615L38.5043 27.5439C38.1019 27.7551 37.6036 27.6015 37.3928 27.1983C37.297 27.0255 37.2778 26.8527 37.3161 26.6799L37.8144 23.7614L35.7064 21.707C35.3997 21.3998 35.3997 20.8814 35.7064 20.555ZM43.9314 43.922C37.2299 50.6235 26.3447 50.6235 19.6432 43.922C12.9418 37.2205 12.9418 26.3354 19.6432 19.6339C22.8236 16.4535 26.9505 14.7687 31.1342 14.6173C26.8748 19.5771 27.083 27.0737 31.7968 31.7685C36.5105 36.4633 43.9882 36.6905 48.948 32.4311C48.7966 36.6148 47.1117 40.7417 43.9314 43.922Z" fill="#6500D3"/>
</svg>
